<svg width="21" height="21" viewBox="0 0 21 21" fill="none" xmlns="http://www.w3.org/2000/svg">
<path d="M2.71484 14.6099V17.7859H5.89084L15.2578 8.41891L12.0818 5.24091L2.71484 14.6099ZM17.7148 5.96191C17.7934 5.88359 17.8557 5.79055 17.8982 5.6881C17.9408 5.58566 17.9627 5.47583 17.9627 5.36491C17.9627 5.25398 17.9408 5.14415 17.8982 5.04171C17.8557 4.93926 17.7934 4.84622 17.7148 4.76791L15.7328 2.78591C15.6545 2.70735 15.5615 2.64503 15.459 2.6025C15.3566 2.55998 15.2468 2.53809 15.1358 2.53809C15.0249 2.53809 14.9151 2.55998 14.8126 2.6025C14.7102 2.64503 14.6172 2.70735 14.5388 2.78591L12.9888 4.34091L16.1648 7.51191L17.7148 5.96191Z" fill="#DFDFDF"/>
</svg>
