<svg width="26" height="16" viewBox="0 0 26 16" fill="none" xmlns="http://www.w3.org/2000/svg">
<path d="M12.69 0.199951C7.842 0.199951 3.445 2.85295 0.2 7.16095C0.0701779 7.33405 0 7.54459 0 7.76096C0 7.97733 0.0701779 8.18786 0.2 8.36095C3.444 12.675 7.841 15.327 12.69 15.327C17.539 15.327 21.935 12.674 25.18 8.36595C25.3098 8.19286 25.38 7.98232 25.38 7.76595C25.38 7.54958 25.3098 7.33905 25.18 7.16595C21.936 2.85295 17.539 0.199951 12.69 0.199951ZM13.038 13.09C11.9551 13.1606 10.8764 12.8995 9.94567 12.3414C9.01497 11.7834 8.27651 10.9548 7.82877 9.96627C7.38102 8.97774 7.24527 7.8762 7.43961 6.80853C7.63395 5.74087 8.14915 4.75782 8.91651 3.99046C9.68386 3.22311 10.6669 2.70791 11.7346 2.51357C12.8022 2.31922 13.9038 2.45497 14.8923 2.90272C15.8809 3.35046 16.7094 4.08892 17.2675 5.01962C17.8256 5.95033 18.0867 7.02905 18.016 8.11195C17.9308 9.40419 17.379 10.6215 16.4632 11.5372C15.5475 12.4529 14.3302 13.0047 13.038 13.09ZM12.877 10.629C12.2941 10.6664 11.7136 10.5253 11.2129 10.2245C10.7122 9.92367 10.315 9.47742 10.0743 8.94521C9.83357 8.41299 9.76074 7.82006 9.8655 7.24541C9.97026 6.67076 10.2476 6.14167 10.6607 5.72863C11.0737 5.31559 11.6028 5.03822 12.1775 4.93346C12.7521 4.82869 13.345 4.90152 13.8773 5.14223C14.4095 5.38295 14.8557 5.78012 15.1565 6.28083C15.4573 6.78154 15.5984 7.36203 15.561 7.94495C15.5173 8.64248 15.2205 9.30007 14.7263 9.79426C14.2321 10.2884 13.5745 10.5853 12.877 10.629Z" fill="#DFDFDF"/>
</svg>
