<svg width="20" height="25" viewBox="0 0 20 25" fill="none" xmlns="http://www.w3.org/2000/svg">
<path d="M12.5408 10.6081C13.2958 10.1797 13.924 9.55903 14.3616 8.80923C14.7991 8.05943 15.0303 7.20718 15.0318 6.33907C15.0195 5.66838 14.8746 5.00677 14.6054 4.39234C14.3362 3.77791 13.9481 3.22282 13.4635 2.75907C12.9788 2.29532 12.4071 1.93206 11.7814 1.69024C11.1557 1.44841 10.4884 1.33281 9.8178 1.35007C9.14723 1.33281 8.47986 1.44841 7.85417 1.69024C7.22847 1.93206 6.65682 2.29532 6.17215 2.75907C5.68748 3.22282 5.29938 3.77791 5.03021 4.39234C4.76103 5.00677 4.61612 5.66838 4.6038 6.33907C4.60529 7.20718 4.83654 8.05943 5.27406 8.80923C5.71157 9.55903 6.33976 10.1797 7.0948 10.6081C5.22987 11.1178 3.58196 12.2216 2.40087 13.7522C1.21978 15.2829 0.569926 17.1568 0.549805 19.0901C0.549805 23.9681 4.9498 23.4691 6.5748 23.5801H13.0048C16.0748 23.5801 19.0298 23.2471 19.0298 19.0901C19.0218 17.1619 18.3833 15.2893 17.2117 13.7578C16.0401 12.2264 14.3997 11.1202 12.5408 10.6081ZM5.7628 6.39507C5.7712 5.87307 5.8831 5.35792 6.09202 4.87948C6.30094 4.40103 6.60272 3.96879 6.97988 3.60781C7.35705 3.24683 7.80209 2.96429 8.28924 2.77654C8.77638 2.58879 9.29593 2.49959 9.8178 2.51407C10.3413 2.49184 10.8638 2.57573 11.354 2.76072C11.8442 2.94571 12.2919 3.22796 12.6701 3.59049C13.0484 3.95302 13.3494 4.38833 13.555 4.87023C13.7607 5.35213 13.8667 5.87064 13.8667 6.39457C13.8667 6.9185 13.7607 7.43703 13.555 7.91892C13.3494 8.40082 13.0484 8.83612 12.6701 9.19865C12.2919 9.56117 11.8442 9.84343 11.354 10.0284C10.8638 10.2134 10.3413 10.2973 9.8178 10.2751C8.77239 10.2751 7.76731 9.87157 7.01206 9.14873C6.25681 8.4259 5.80966 7.43948 5.7638 6.39507H5.7628ZM13.0628 22.4721H6.6318C4.5468 22.4171 1.7658 22.6381 1.7658 19.0901C1.8193 16.9878 2.70199 14.9921 4.2213 13.5381C5.74061 12.0842 7.77326 11.2901 9.8758 11.3291C11.9784 11.2901 14.011 12.0842 15.5303 13.5381C17.0496 14.9921 17.9323 16.9878 17.9858 19.0901C17.9278 21.9691 16.4218 22.4691 13.0618 22.4691L13.0628 22.4721Z" fill="#A6A6A6" stroke="#A6A6A6"/>
</svg>
