<svg width="32" height="32" viewBox="0 0 32 32" fill="none" xmlns="http://www.w3.org/2000/svg">
<path d="M14.99 19.7999V10.2539H10.324L16.324 4.25391L22.324 10.2539H17.657V19.8009L14.99 19.7999ZM8 18.6669C8 20.7886 8.84285 22.8235 10.3431 24.3238C11.8434 25.8241 13.8783 26.6669 16 26.6669C18.1217 26.6669 20.1566 25.8241 21.6569 24.3238C23.1571 22.8235 24 20.7886 24 18.6669H21.333C21.333 20.0813 20.7711 21.4378 19.771 22.4379C18.7709 23.438 17.4144 23.9999 16 23.9999C14.5856 23.9999 13.2291 23.438 12.229 22.4379C11.2289 21.4378 10.667 20.0813 10.667 18.6669H8Z" fill="#AAAAAA"/>
</svg>
